<svg xmlns="http://www.w3.org/2000/svg" width="800" height="450" viewBox="0 0 800 450">
  <rect width="800" height="450" fill="#18181b"/>
  <rect x="0" y="0" width="800" height="40" fill="#27272a"/>
  <circle cx="20" cy="20" r="6" fill="#ef4444"/>
  <circle cx="40" cy="20" r="6" fill="#eab308"/>
  <circle cx="60" cy="20" r="6" fill="#22c55e"/>
  <rect x="560" y="50" width="220" height="380" fill="#1f1f23" rx="4"/>
  <rect x="574" y="70" width="192" height="12" rx="2" fill="#3f3f46"/>
  <rect x="574" y="96" width="140" height="10" rx="2" fill="#52525b"/>
  <rect x="574" y="120" width="160" height="10" rx="2" fill="#52525b"/>
  <rect x="574" y="150" width="100" height="8" rx="2" fill="#3b82f6"/>
  <rect x="574" y="170" width="80" height="8" rx="2" fill="#a78bfa"/>
  <rect x="60" y="80" width="460" height="280" rx="8" fill="none" stroke="#3b82f6" stroke-width="2" stroke-dasharray="6,4"/>
  <rect x="80" y="100" width="200" height="120" rx="4" fill="none" stroke="#6366f1" stroke-width="1.5"/>
  <text x="180" y="165" text-anchor="middle" font-family="Inter, sans-serif" font-size="13" fill="#a1a1aa">Element</text>
  <text x="400" y="430" text-anchor="middle" font-family="Inter, sans-serif" font-size="14" fill="#52525b">Oculay — Web Inspector</text>
</svg>
